<svg version="1.0" xmlns="http://www.w3.org/2000/svg"
     width="954.000000pt" height="1021.000000pt" viewBox="0 0 954.000000 1021.000000"
     preserveAspectRatio="xMidYMid meet">

    <g transform="translate(0.000000,1021.000000) scale(0.100000,-0.100000)"
       fill="#f1d095" stroke="#f1d095">
        <path d="M0 5105 l0 -5105 4770 0 4770 0 0 5105 0 5105 -4770 0 -4770 0 0
-5105z m5031 2196 c30 -5 86 -15 124 -21 39 -6 84 -16 100 -21 17 -4 45 -11
63 -14 112 -19 377 -125 537 -216 296 -167 597 -451 773 -729 142 -223 262
-524 307 -765 116 -619 -16 -1218 -377 -1723 -97 -136 -298 -346 -419 -437
-14 -11 -51 -39 -82 -62 -31 -24 -58 -43 -61 -43 -3 0 -36 -20 -73 -44 -210
-135 -487 -241 -768 -292 -119 -22 -174 -26 -365 -29 -240 -3 -296 3 -510 51
-114 26 -346 98 -365 114 -5 4 -39 20 -73 34 -140 59 -375 209 -502 320 -80
71 -250 247 -297 310 -26 33 -50 63 -54 66 -3 3 -36 51 -72 107 -106 164 -201
367 -251 538 -10 33 -22 71 -27 85 -14 43 -28 103 -35 155 -3 28 -8 53 -10 57
-9 14 -34 297 -34 382 0 83 25 340 34 355 3 4 7 26 11 50 3 24 10 53 15 66 5
13 7 25 4 28 -7 7 88 290 121 362 15 33 35 78 45 100 23 52 133 238 173 293
178 242 400 451 637 601 235 148 547 265 810 305 58 8 116 17 130 19 53 9 439
7 491 -2z"/>
        <path d="M4565 7173 c-414 -50 -758 -190 -1090 -443 -81 -62 -290 -278 -362
-375 -211 -281 -334 -576 -400 -952 -12 -72 -17 -154 -17 -308 1 -226 7 -273
66 -515 87 -354 295 -712 565 -970 355 -340 786 -535 1286 -581 271 -25 609
24 882 127 372 141 692 380 930 694 173 228 302 502 365 775 45 194 55 275 55
460 0 290 -41 519 -136 765 -215 554 -661 994 -1214 1200 -150 56 -301 94
-473 119 -66 10 -386 13 -457 4z m379 -264 c44 -6 88 -11 96 -11 31 0 289 -68
366 -97 230 -85 434 -216 633 -406 77 -74 218 -241 210 -249 -2 -2 -26 0 -54
4 -67 12 -171 12 -219 0 l-39 -9 -91 85 c-213 198 -427 315 -724 394 -135 36
-423 53 -523 31 -24 -5 -67 -12 -96 -15 -28 -3 -76 -12 -105 -21 -155 -47
-213 -68 -279 -98 -59 -26 -89 -34 -149 -36 -71 -2 -185 -23 -198 -35 -3 -3
21 -6 54 -6 167 -1 448 -120 646 -276 139 -108 315 -292 423 -439 17 -22 32
-42 35 -45 8 -8 54 -70 105 -145 27 -38 53 -74 58 -80 4 -5 59 -93 122 -195
281 -457 334 -523 470 -586 340 -157 722 148 651 520 -73 379 -539 521 -801
244 -33 -35 -67 -74 -76 -87 -21 -33 -35 -21 -54 41 -50 170 25 308 205 377
133 52 254 63 392 36 383 -73 625 -422 568 -819 -20 -138 -88 -264 -206 -383
-84 -84 -163 -133 -284 -175 -69 -24 -261 -35 -342 -20 -136 26 -281 105 -385
212 -84 85 -130 146 -432 585 -86 124 -182 261 -194 275 -7 8 -23 31 -37 50
-13 19 -29 40 -35 45 -6 6 -36 42 -67 80 -179 223 -435 415 -631 475 -237 72
-508 67 -651 -13 -25 -14 -46 -22 -46 -17 0 23 136 188 239 290 123 122 237
209 379 290 194 110 429 191 627 216 203 26 324 29 439 13z"/>
    </g>
</svg>
